<svg width="213" height="51" viewBox="0 0 213 51" fill="none" xmlns="http://www.w3.org/2000/svg">
<path d="M46.7248 11.9161C46.7248 11.2858 46.8444 10.6923 47.079 10.1356C47.3137 9.57897 47.6357 9.10051 48.0452 8.70025C48.4546 8.2954 48.9239 7.97796 49.4621 7.73873C50.0004 7.4995 50.5801 7.37988 51.2012 7.37988C51.7993 7.37988 52.3789 7.4995 52.9264 7.73873C53.4739 7.97796 53.9569 8.3 54.3756 8.70025C54.7942 9.10511 55.1209 9.58357 55.3601 10.1356C55.5947 10.6923 55.7144 11.2858 55.7144 11.9161C55.7144 12.5464 55.5947 13.1352 55.3601 13.6781C55.1255 14.221 54.7942 14.6994 54.3756 15.1135C53.9569 15.5275 53.4739 15.8542 52.9264 16.0934C52.3789 16.3326 51.8039 16.4523 51.2012 16.4523C50.5801 16.4523 50.0004 16.3326 49.4621 16.0934C48.9239 15.8542 48.4546 15.5275 48.0452 15.1135C47.6357 14.6994 47.3137 14.221 47.079 13.6781C46.8444 13.1352 46.7248 12.5464 46.7248 11.9161Z" fill="#00B9CD"/>
<path d="M55.4198 45.4172C55.4198 46.0061 55.3094 46.5535 55.0978 47.0642C54.8815 47.5749 54.5871 48.0211 54.2098 48.403C53.8326 48.7848 53.3955 49.0839 52.8895 49.3001C52.3834 49.5163 51.8451 49.6267 51.2655 49.6267C50.6858 49.6267 50.1429 49.5163 49.6415 49.3001C49.1354 49.0839 48.6937 48.7848 48.3027 48.403C47.9162 48.0211 47.6126 47.5749 47.3826 47.0642C47.1571 46.5535 47.0421 46.0014 47.0421 45.4172V23.4815C47.0421 22.8926 47.1571 22.3452 47.3826 21.8345C47.608 21.3238 47.9116 20.8776 48.3027 20.4957C48.6937 20.1139 49.1446 19.8148 49.6691 19.5986C50.1935 19.3824 50.7502 19.272 51.3299 19.272C51.9095 19.272 52.4478 19.3824 52.9401 19.5986C53.4323 19.8148 53.8694 20.1139 54.2421 20.4957C54.6193 20.8776 54.9091 21.3238 55.1116 21.8345C55.314 22.3452 55.4198 22.8972 55.4198 23.4815V45.4172Z" fill="#00B9CD"/>
<path d="M62.6979 11.9161C62.6979 11.2858 62.8175 10.6923 63.0521 10.1356C63.2868 9.57897 63.6088 9.10051 64.0183 8.70025C64.4277 8.2954 64.897 7.97796 65.4352 7.73873C65.9735 7.4995 66.5532 7.37988 67.1743 7.37988C67.7723 7.37988 68.352 7.4995 68.8995 7.73873C69.447 7.97796 69.93 8.3 70.3487 8.70025C70.7673 9.10511 71.094 9.58357 71.3332 10.1356C71.5678 10.6923 71.6874 11.2858 71.6874 11.9161C71.6874 12.5464 71.5678 13.1352 71.3332 13.6781C71.0986 14.221 70.7673 14.6994 70.3487 15.1135C69.93 15.5275 69.447 15.8542 68.8995 16.0934C68.352 16.3326 67.7769 16.4523 67.1743 16.4523C66.5532 16.4523 65.9735 16.3326 65.4352 16.0934C64.897 15.8542 64.4277 15.5275 64.0183 15.1135C63.6088 14.6994 63.2868 14.221 63.0521 13.6781C62.8175 13.1352 62.6979 12.5464 62.6979 11.9161Z" fill="#00B9CD"/>
<path d="M71.3931 45.4172C71.3931 46.0061 71.2827 46.5535 71.0711 47.0642C70.8549 47.5749 70.5604 48.0211 70.1832 48.403C69.8059 48.7848 69.3689 49.0839 68.8628 49.3001C68.3567 49.5163 67.8185 49.6267 67.2388 49.6267C66.6591 49.6267 66.1162 49.5163 65.6148 49.3001C65.1087 49.0839 64.6671 48.7848 64.276 48.403C63.8896 48.0211 63.5859 47.5749 63.3559 47.0642C63.1305 46.5535 63.0154 46.0014 63.0154 45.4172V23.4815C63.0154 22.8926 63.1305 22.3452 63.3559 21.8345C63.5813 21.3238 63.885 20.8776 64.276 20.4957C64.6625 20.1139 65.1179 19.8148 65.6424 19.5986C66.1669 19.3824 66.7235 19.272 67.3032 19.272C67.8829 19.272 68.4211 19.3824 68.9134 19.5986C69.4057 19.8148 69.8427 20.1139 70.2154 20.4957C70.5926 20.8776 70.8825 21.3238 71.0849 21.8345C71.2873 22.3452 71.3931 22.8972 71.3931 23.4815V45.4172Z" fill="#00B9CD"/>
<path d="M107.655 45.551C107.655 46.1399 107.545 46.6828 107.333 47.1842C107.117 47.6857 106.827 48.1273 106.464 48.5046C106.1 48.8864 105.668 49.1809 105.175 49.3879C104.683 49.5949 104.145 49.6962 103.565 49.6962C102.985 49.6962 102.438 49.5949 101.923 49.3879C101.407 49.1809 100.952 48.8864 100.556 48.5046C100.156 48.1227 99.8479 47.6811 99.6225 47.1842C99.397 46.6828 99.282 46.1399 99.282 45.551V34.1231C99.282 34.0587 99.282 33.9897 99.282 33.9115C99.282 33.8333 99.2912 33.7643 99.3142 33.6999C99.2728 32.8304 99.0842 32.0069 98.7483 31.234C98.4171 30.4611 97.9708 29.7848 97.4142 29.2097C96.8575 28.6346 96.1996 28.1838 95.4497 27.8571C94.6998 27.5305 93.8809 27.3695 93.0022 27.3695C92.0775 27.3695 91.2356 27.5397 90.4719 27.8755C89.7082 28.2114 89.0549 28.676 88.5074 29.2649C87.9599 29.8538 87.5367 30.5439 87.2376 31.3352C86.9386 32.1311 86.7868 32.996 86.7868 33.9299V45.551C86.7868 46.1399 86.6764 46.6828 86.4647 47.1842C86.2485 47.6857 85.9587 48.1273 85.5952 48.5046C85.2318 48.8864 84.7993 49.1809 84.3071 49.3879C83.8148 49.5949 83.2765 49.6962 82.6969 49.6962C82.1172 49.6962 81.5697 49.5949 81.0544 49.3879C80.5392 49.1809 80.0883 48.8864 79.7019 48.5046C79.3154 48.1227 79.0026 47.6811 78.7679 47.1842C78.5333 46.6828 78.4137 46.1399 78.4137 45.551V34.1231V33.9621V33.9299C78.4137 31.8412 78.7909 29.8814 79.5408 28.0549C80.2907 26.2285 81.3213 24.6321 82.6324 23.2703C83.9436 21.9085 85.4802 20.8366 87.256 20.0545C89.0273 19.2724 90.9411 18.8813 93.0068 18.8813C95.0725 18.8813 96.9909 19.2724 98.7713 20.0545C100.552 20.8366 102.107 21.9085 103.427 23.2703C104.748 24.6321 105.783 26.2239 106.533 28.0549C107.282 29.8814 107.66 31.8412 107.66 33.9299V34.0909V34.1231V45.551H107.655Z" fill="#00B9CD"/>
<path d="M0.401222 6.95656C0.120586 6.30788 -0.0128314 5.64999 0.000970439 4.9737C0.0147722 4.30202 0.143589 3.67173 0.38282 3.08746C0.622051 2.50318 0.980898 1.97411 1.45476 1.49565C1.92402 1.01719 2.49449 0.64914 3.15698 0.386906C3.77346 0.129272 4.39914 0.00505618 5.03862 0.018858C5.67811 0.0326598 6.28539 0.161477 6.86046 0.405308C7.43554 0.653741 7.9508 1.00339 8.41086 1.45424C8.87092 1.9051 9.23897 2.45718 9.52421 3.10586C9.52421 3.10586 20.6485 29.4765 20.8739 29.9918C21.2051 30.7417 22.3967 30.7002 22.7049 29.9872C22.9349 29.4535 33.9764 3.10586 33.9764 3.10586C34.2294 2.48478 34.5975 1.94191 35.0667 1.47265C35.5406 1.00799 36.0651 0.64914 36.6401 0.405308C37.2106 0.161477 37.8179 0.0326598 38.4574 0.018858C39.0968 0.00505618 39.7363 0.129272 40.3758 0.386906C41.0153 0.644539 41.5628 1.00799 42.0228 1.47725C42.4829 1.94651 42.8325 2.47558 43.0764 3.06905C43.3202 3.66713 43.4444 4.29741 43.4582 4.9737C43.472 5.64539 43.3386 6.30788 43.058 6.95656L26.3486 46.6229C25.9391 47.6074 25.3273 48.3665 24.5084 48.8956C23.6894 49.4247 22.7969 49.7053 21.8262 49.7329H21.4444L20.9475 49.6547C20.1286 49.5259 19.3833 49.2039 18.707 48.684C18.0307 48.1687 17.5108 47.4786 17.1566 46.6229L0.401222 6.95656Z" fill="#00B9CD"/>
<path d="M147.031 34.4493C147.031 32.2962 147.436 30.2765 148.255 28.3949C149.07 26.5133 150.178 24.8662 151.572 23.4493C152.966 22.0323 154.595 20.9189 156.449 20.1046C158.308 19.2903 160.286 18.8809 162.393 18.8809C164.518 18.8809 166.51 19.2903 168.364 20.1046C170.223 20.9189 171.843 22.0369 173.227 23.4493C174.612 24.8662 175.707 26.5133 176.512 28.3949C177.317 30.2765 177.722 32.2962 177.722 34.4493C177.722 36.584 177.317 38.5944 176.512 40.4899C175.707 42.3853 174.612 44.0369 173.227 45.4493C171.843 46.8663 170.223 47.9796 168.364 48.7939C166.506 49.6083 164.518 50.0177 162.393 50.0177C160.29 50.0177 158.308 49.6083 156.449 48.7939C154.59 47.9796 152.966 46.8617 151.572 45.4493C150.178 44.0369 149.07 42.3807 148.255 40.4899C147.436 38.5944 147.031 36.584 147.031 34.4493ZM155.405 34.4493C155.405 35.4292 155.593 36.3493 155.97 37.2096C156.348 38.07 156.849 38.8198 157.484 39.4639C158.114 40.108 158.86 40.6141 159.706 40.9821C160.553 41.3548 161.45 41.5388 162.393 41.5388C163.359 41.5388 164.265 41.3548 165.116 40.9821C165.963 40.6141 166.699 40.108 167.325 39.4639C167.946 38.8198 168.438 38.07 168.806 37.2096C169.17 36.3493 169.354 35.4292 169.354 34.4493C169.354 33.4694 169.17 32.5492 168.806 31.6889C168.443 30.8286 167.95 30.0787 167.325 29.4346C166.699 28.7951 165.968 28.2891 165.116 27.9164C164.265 27.5484 163.364 27.3598 162.393 27.3598C161.45 27.3598 160.553 27.5438 159.706 27.9164C158.855 28.2845 158.114 28.7951 157.484 29.4346C156.849 30.0787 156.348 30.8286 155.97 31.6889C155.589 32.5492 155.405 33.4694 155.405 34.4493Z" fill="#804282"/>
<path d="M181.646 34.4493C181.646 32.2962 182.056 30.2765 182.87 28.3949C183.684 26.5133 184.793 24.8662 186.187 23.4493C187.581 22.0323 189.21 20.9189 191.068 20.1046C192.922 19.2903 194.905 18.8809 197.008 18.8809C199.133 18.8809 201.125 19.2903 202.984 20.1046C204.843 20.9189 206.462 22.0369 207.847 23.4493C209.232 24.8662 210.327 26.5133 211.132 28.3949C211.937 30.2765 212.337 32.2962 212.337 34.4493C212.337 36.584 211.937 38.5944 211.132 40.4899C210.327 42.3853 209.232 44.0369 207.847 45.4493C206.462 46.8663 204.843 47.9796 202.984 48.7939C201.125 49.6083 199.133 50.0177 197.008 50.0177C194.905 50.0177 192.922 49.6083 191.068 48.7939C189.21 47.9796 187.586 46.8617 186.187 45.4493C184.793 44.0369 183.684 42.3807 182.87 40.4899C182.056 38.5944 181.646 36.584 181.646 34.4493ZM190.024 34.4493C190.024 35.4292 190.213 36.3493 190.585 37.2096C190.963 38.07 191.464 38.8198 192.099 39.4639C192.734 40.108 193.475 40.6141 194.321 40.9821C195.168 41.3548 196.065 41.5388 197.008 41.5388C197.974 41.5388 198.88 41.3548 199.731 40.9821C200.578 40.6141 201.314 40.108 201.94 39.4639C202.561 38.8198 203.058 38.07 203.421 37.2096C203.785 36.3493 203.969 35.4292 203.969 34.4493C203.969 33.4694 203.785 32.5492 203.421 31.6889C203.058 30.8286 202.561 30.0787 201.94 29.4346C201.319 28.7951 200.582 28.2891 199.731 27.9164C198.885 27.5484 197.979 27.3598 197.008 27.3598C196.065 27.3598 195.168 27.5438 194.321 27.9164C193.475 28.2845 192.734 28.7951 192.099 29.4346C191.469 30.0787 190.963 30.8286 190.585 31.6889C190.208 32.5492 190.024 33.4694 190.024 34.4493Z" fill="#804282"/>
<path d="M143.333 6.07325V4.46304C143.333 3.85116 143.232 3.28068 143.015 2.73781C142.794 2.19494 142.5 1.72568 142.114 1.33003C141.727 0.938979 141.276 0.630739 140.761 0.400709C140.246 0.170679 139.698 0.0556641 139.114 0.0556641C138.516 0.0556641 137.964 0.170679 137.458 0.400709C136.956 0.630739 136.515 0.938979 136.137 1.33003C135.765 1.72108 135.475 2.19494 135.273 2.73781C135.065 3.28068 134.964 3.85576 134.964 4.46304V6.07325V10.2874V11.9574V16.1071V20.6065C133.892 20.0637 132.779 19.6404 131.615 19.3322C130.46 19.0285 129.246 18.8721 127.976 18.8721C125.855 18.8721 123.858 19.2816 122.004 20.0959C120.146 20.9102 118.526 22.0281 117.142 23.4451C115.761 24.8575 114.666 26.5045 113.857 28.3907C113.047 30.277 112.651 32.2921 112.651 34.4451C112.651 36.5798 113.052 38.5903 113.857 40.4857C114.662 42.3766 115.761 44.0282 117.142 45.4452C118.531 46.8575 120.146 47.9755 122.004 48.7898C123.863 49.6041 125.855 50.0136 127.976 50.0136C130.06 50.0136 132.029 49.6087 133.874 48.8082C135.719 47.9985 137.338 46.899 138.737 45.5142C140.131 44.1202 141.235 42.4916 142.054 40.6329C142.868 38.7743 143.301 36.7868 143.342 34.6752V16.1071V11.9574V6.06865H143.333V6.07325ZM134.398 37.2101C134.026 38.075 133.52 38.8203 132.889 39.4598C132.25 40.1039 131.514 40.6145 130.663 40.9826C129.816 41.3506 128.919 41.5393 127.971 41.5393C127.005 41.5393 126.099 41.3506 125.248 40.9826C124.401 40.6145 123.665 40.1085 123.04 39.4598C122.418 38.8203 121.922 38.0704 121.563 37.2101C121.195 36.3544 121.015 35.4297 121.015 34.4497C121.015 33.4698 121.195 32.5543 121.563 31.6894C121.926 30.8337 122.423 30.0792 123.04 29.4397C123.665 28.8002 124.401 28.2941 125.248 27.9169C126.099 27.5488 127.001 27.3694 127.971 27.3694C128.919 27.3694 129.816 27.5488 130.663 27.9169C131.514 28.2895 132.25 28.8002 132.889 29.4397C133.52 30.0792 134.026 30.8337 134.398 31.6894C134.771 32.5543 134.96 33.4698 134.96 34.4497C134.96 35.4297 134.771 36.3498 134.398 37.2101Z" fill="#804282"/>
</svg>
